<?xml version="1.0" encoding="UTF-8"?>
<!DOCTYPE svg PUBLIC "-//W3C//DTD SVG 1.1//EN" "http://www.w3.org/Graphics/SVG/1.1/DTD/svg11.dtd">
<!-- Creator: CorelDRAW X7 -->
<svg xmlns="http://www.w3.org/2000/svg" xml:space="preserve" width="209.903mm" height="296.686mm" version="1.1" style="shape-rendering:geometricPrecision; text-rendering:geometricPrecision; image-rendering:optimizeQuality; fill-rule:evenodd; clip-rule:evenodd"
viewBox="0 0 20990 29669"
 xmlns:xlink="http://www.w3.org/1999/xlink">
 <defs>
  <style type="text/css">
   <![CDATA[
    .fil0 {fill:#990000}
   ]]>
  </style>
 </defs>
 <g id="Layer_x0020_1">
  <metadata id="CorelCorpID_0Corel-Layer"/>
  <path class="fil0" d="M10589 15729c0,276 -123,495 -368,655 -124,80 -256,134 -398,161 -42,7 -178,18 -404,32 -312,19 -468,106 -468,260 0,135 132,202 398,202l524 0c184,0 340,17 467,50 126,33 238,84 333,154 187,138 280,331 280,582 0,276 -109,492 -324,646 -223,160 -549,239 -979,239 -463,0 -790,-93 -983,-279 -122,-120 -184,-270 -184,-449 0,-142 46,-261 137,-360 91,-98 201,-147 332,-147 95,0 173,28 234,85 60,57 90,132 90,225l0 34 -59 17c-35,-60 -71,-101 -107,-125 -36,-23 -80,-35 -132,-35 -89,0 -160,34 -217,102 -55,68 -83,156 -83,264 0,173 86,313 258,424 171,110 390,166 657,166 284,0 514,-62 688,-184 175,-123 262,-282 262,-478 0,-157 -58,-278 -174,-362 -117,-84 -284,-127 -499,-127l-506 0c-207,0 -375,-48 -502,-146 -131,-101 -197,-222 -197,-364 0,-149 70,-267 210,-354 72,-42 204,-88 394,-137 -185,-84 -329,-196 -431,-334 -103,-139 -153,-290 -153,-458 0,-214 79,-403 238,-570 93,-100 203,-177 331,-232 127,-55 257,-82 391,-82 227,0 435,74 597,202 109,-74 240,-137 377,-154 262,-34 354,-73 592,-215 -32,-24 -6,-13 -51,-24 -98,-24 -641,45 -1409,-336 -386,-191 -827,-441 -1083,-897 -148,-265 -186,-532 -105,-808 79,-267 188,-391 407,-568 93,-75 6,-115 160,-314 329,-424 925,-255 1107,-236l-72 111c-255,-43 -617,-55 -838,125 -58,47 -140,124 -149,199 200,-58 233,-68 435,-58 103,6 302,21 379,49 112,-140 162,-281 275,-423 888,-1413 -150,447 -153,463 432,138 1032,503 1319,857 170,209 333,489 373,841 57,518 -167,739 -182,815 389,-108 618,-454 716,-745 333,-986 -767,-1651 -1531,-1938 -87,-32 -375,-133 -495,-155l52 -102c760,185 1857,682 2095,1498 190,653 -124,1252 -653,1484 -109,47 -289,69 -367,135 -90,75 -169,135 -276,198 -247,145 -455,338 -749,378 109,150 173,336 173,543zm-579 -3689c-166,278 -512,470 -819,319 -132,-65 -105,-86 -194,-214 -107,48 -232,256 -274,350 -468,1043 1222,1869 2137,1982 98,13 434,39 542,-11 75,-35 203,-282 236,-383 107,-325 21,-738 -162,-1041 -167,-278 -424,-494 -640,-633 -179,-114 -622,-355 -826,-369zm-113 -24c-58,-50 -248,-69 -352,-72 -147,-5 -296,40 -421,99 13,116 55,160 124,194 291,140 515,-82 649,-221zm-758 3693c0,228 48,413 145,557 96,143 218,214 369,214 152,0 270,-71 354,-213 85,-142 127,-340 127,-592 0,-262 -55,-471 -165,-626 -80,-116 -184,-174 -311,-174 -151,0 -274,76 -367,228 -46,75 -83,169 -110,278 -27,109 -42,219 -42,328z"/>
 </g>
</svg>
